<?xml version="1.0" encoding="UTF-8" standalone="no"?>
<!-- Generator: IcoMoon.io -->

<svg
   xmlns:dc="http://purl.org/dc/elements/1.1/"
   xmlns:cc="http://creativecommons.org/ns#"
   xmlns:rdf="http://www.w3.org/1999/02/22-rdf-syntax-ns#"
   xmlns:svg="http://www.w3.org/2000/svg"
   xmlns="http://www.w3.org/2000/svg"
   xmlns:sodipodi="http://sodipodi.sourceforge.net/DTD/sodipodi-0.dtd"
   xmlns:inkscape="http://www.inkscape.org/namespaces/inkscape"
   version="1.1"
   id="Layer_1"
   x="0px"
   y="0px"
   width="48px"
   height="48px"
   viewBox="0 0 48 48"
   enable-background="new 0 0 16 16"
   xml:space="preserve"
   fill="#000000"
   inkscape:version="0.48.3.1 r9886"
   sodipodi:docname="image.svg"><metadata
   id="metadata9"><rdf:RDF><cc:Work
       rdf:about=""><dc:format>image/svg+xml</dc:format><dc:type
         rdf:resource="http://purl.org/dc/dcmitype/StillImage" /></cc:Work></rdf:RDF></metadata><defs
   id="defs7" /><sodipodi:namedview
   pagecolor="#ffffff"
   bordercolor="#666666"
   borderopacity="1"
   objecttolerance="10"
   gridtolerance="10"
   guidetolerance="10"
   inkscape:pageopacity="0"
   inkscape:pageshadow="2"
   inkscape:window-width="1024"
   inkscape:window-height="692"
   id="namedview5"
   showgrid="false"
   inkscape:zoom="4.9166667"
   inkscape:cx="24"
   inkscape:cy="24"
   inkscape:window-x="0"
   inkscape:window-y="24"
   inkscape:window-maximized="1"
   inkscape:current-layer="Layer_1" /> <path
   d="M 19.407,33.093c-2.229,0.00-5.718-8.814-7.407-5.25 c-0.702,1.482-1.872,4.641-3.00,7.17L9.00,36.00 c0.00,1.659, 1.344,3.00, 3.00,3.00l24.00,0.00 c 1.659,0.00, 3.00-1.341, 3.00-3.00l0.00,-1.398 c-1.695-3.816-3.891-10.14-6.00-12.57 C 28.686,17.064, 23.532,33.093, 19.407,33.093z M 39.00,0.00L9.00,0.00 C 4.029,0.00,0.00,4.029,0.00,9.00l0.00,30.00 c0.00,4.968, 4.029,9.00, 9.00,9.00l30.00,0.00 c 4.968,0.00, 9.00-4.032, 9.00-9.00L48.00,9.00 C 48.00,4.029, 43.968,0.00, 39.00,0.00z M 42.00,39.00c0.00,1.659-1.341,3.00-3.00,3.00L9.00,42.00 c-1.656,0.00-3.00-1.341-3.00-3.00L6.00,9.00 c0.00-1.656, 1.344-3.00, 3.00-3.00l30.00,0.00 c 1.659,0.00, 3.00,1.344, 3.00,3.00L42.00,39.00 z M 13.50,18.00C 15.987,18.00, 18.00,15.987, 18.00,13.50S 15.987,9.00, 13.50,9.00S 9.00,11.013, 9.00,13.50S 11.013,18.00, 13.50,18.00z"
   id="path3"
   style="fill:#6699cc" /><path
   inkscape:connector-curvature="0"
   d="m 39,4.279661e-7 -30.000001,0 C 4.028999,4.279661e-7 -9.8050847e-7,4.0290004 -9.8050847e-7,9.0000004 l 0,30.0000006 c 0,4.968 4.02899998050847,9 8.99999998050847,9 l 30.000001,0 c 4.968,0 9,-4.032 9,-9 L 48,9.0000004 C 48,4.0290004 43.968,4.279661e-7 39,4.279661e-7 z M 42,39.000001 c 0,1.659 -1.341,3 -3,3 l -30.000001,0 c -1.656,0 -3,-1.341 -3,-3 l 0,-30.0000006 c 0,-1.656 1.344,-3 3,-3 l 30.000001,0 c 1.659,0 3,1.344 3,3 z m -28.5,-21 C 15.987,18.000001 18,15.987 18,13.5 18,11.013 15.987,9.0000004 13.5,9.0000004 11.013,9.0000004 8.999999,11.013 8.999999,13.5 c 0,2.487 2.013001,4.500001 4.500001,4.500001 z"
   id="path3-0"
   sodipodi:nodetypes="sssssssssssssssssssssss"
   style="fill:#f0a513" /><path
   inkscape:connector-curvature="0"
   d="m 39.20339,-3.1101696e-7 -30.0000013,0 C 4.2323887,-3.1101696e-7 0.20338866,4.029 0.20338866,9 l 0,30 c 0,4.968 4.02900004,9 9.00000004,9 L 39.20339,48 c 4.968,0 9,-4.032 9,-9 l 0,-30 c 0,-4.971 -4.032,-9.00000031101696 -9,-9.00000031101696 z M 42.20339,39 c 0,1.659 -1.341,3 -3,3 L 9.2033887,42 c -1.656,0 -3,-1.341 -3,-3 l 0,-30 c 0,-1.656 1.344,-3 3,-3 L 39.20339,6 c 1.659,0 3,1.344 3,3 z"
   id="path3-0-3"
   sodipodi:nodetypes="ssssssssssssssssss"
   style="fill:#000000" /></svg>