<?xml version="1.0" encoding="UTF-8" standalone="no"?>
<svg
   xmlns:oryx="http://www.b3mn.org/oryx"
   xmlns:dc="http://purl.org/dc/elements/1.1/"
   xmlns:cc="http://creativecommons.org/ns#"
   xmlns:rdf="http://www.w3.org/1999/02/22-rdf-syntax-ns#"
   xmlns:svg="http://www.w3.org/2000/svg"
   xmlns="http://www.w3.org/2000/svg"
   xmlns:sodipodi="http://sodipodi.sourceforge.net/DTD/sodipodi-0.dtd"
   xmlns:inkscape="http://www.inkscape.org/namespaces/inkscape"
   width="48"
   height="48"
   viewBox="0 0 38.4 38.4"
   version="1.1"
   id="svg2"
   inkscape:version="0.48.3.1 r9886"
   sodipodi:docname="usecase.svg"
   inkscape:export-filename="/home/javier/Escritorio/alcoor/diseño/iconos/minmaps.png"
   inkscape:export-xdpi="29.449623"
   inkscape:export-ydpi="29.449623">
  <metadata
     id="metadata10">
    <rdf:RDF>
      <cc:Work
         rdf:about="">
        <dc:format>image/svg+xml</dc:format>
        <dc:type
           rdf:resource="http://purl.org/dc/dcmitype/StillImage" />
        <dc:title></dc:title>
      </cc:Work>
    </rdf:RDF>
  </metadata>
  <defs
     id="defs8" />
  <sodipodi:namedview
     pagecolor="#ffffff"
     bordercolor="#666666"
     borderopacity="1"
     objecttolerance="10"
     gridtolerance="10"
     guidetolerance="10"
     inkscape:pageopacity="0"
     inkscape:pageshadow="2"
     inkscape:window-width="1024"
     inkscape:window-height="692"
     id="namedview6"
     showgrid="false"
     inkscape:zoom="23.6"
     inkscape:cx="18.175177"
     inkscape:cy="26.377591"
     inkscape:window-x="0"
     inkscape:window-y="24"
     inkscape:window-maximized="1"
     inkscape:current-layer="svg2"
     showguides="true"
     inkscape:guide-bbox="true">
    <sodipodi:guide
       orientation="1,0"
       position="22.118644,22.118644"
       id="guide3366" />
    <sodipodi:guide
       orientation="1,0"
       position="46.525424,38.389831"
       id="guide3368" />
    <sodipodi:guide
       orientation="1,0"
       position="-21.949153,35.338983"
       id="guide4028" />
    <sodipodi:guide
       orientation="0,1"
       position="28.601695,32.245763"
       id="guide4040" />
    <sodipodi:guide
       orientation="0,1"
       position="25.805085,31.271186"
       id="guide4042" />
  </sodipodi:namedview>
  <text
     xml:space="preserve"
     style="font-size:40px;font-style:normal;font-weight:normal;line-height:125%;letter-spacing:0px;word-spacing:0px;fill:#000000;fill-opacity:1;stroke:none;font-family:Sans"
     x="31.779661"
     y="6.3050847"
     id="text3094"
     sodipodi:linespacing="125%"
     transform="scale(0.8,0.8)"><tspan
       sodipodi:role="line"
       id="tspan3096" /></text>
  <g
     id="g3857"
     transform="matrix(0.99382151,0,0,0.90759237,-2.3492045,2.4148708)">
    <ellipse
       transform="matrix(0.26175847,0,0,0.24132987,0.94237312,5.609762)"
       rx="10"
       ry="10"
       cy="14"
       cx="32"
       id="head"
       sodipodi:cx="32"
       sodipodi:cy="14"
       sodipodi:rx="10"
       sodipodi:ry="10"
       style="fill:#ffffff;stroke:#000000;stroke-width:2"
       d="M 42,14 C 42,19.522847 37.522847,24 32,24 26.477153,24 22,19.522847 22,14 22,8.4771525 26.477153,4 32,4 37.522847,4 42,8.4771525 42,14 z" />
    <path
       id="path3839"
       d="m 9.3186442,11.401679 0,7.239896 m -5.2351694,-4.826597 10.4703392,0 m -5.2351698,4.826597 5.2351698,7.239896 m -10.4703392,0 5.2351694,-7.239896"
       inkscape:connector-curvature="0"
       style="stroke:#000000;stroke-width:0.50267339;stroke-linecap:round" />
  </g>
  <ellipse
     d="M 120,25 C 120,38.807119 93.137085,50 60,50 26.862915,50 0,38.807119 0,25 0,11.192881 26.862915,0 60,0 c 33.137085,0 60,11.192881 60,25 z"
     style="fill:#666699;stroke:#000000;stroke-width:1"
     sodipodi:ry="25"
     sodipodi:rx="60"
     sodipodi:cy="25"
     sodipodi:cx="60"
     id="celem"
     oryx:resize="vertical horizontal"
     cx="60"
     cy="25"
     rx="60"
     ry="25"
     transform="matrix(0.16271187,0,0,0.21339868,18.779661,3.2938101)" />
  <rect
     style="fill:none;stroke:none"
     id="textrect"
     oryx:resize="vertical horizontal"
     x="19.059029"
     y="2.9262927"
     width="16.143387"
     height="5.7653375" />
  <text
     style="font-size:2.04685807px;stroke:#000000;stroke-width:0.18607801"
     oryx:fittoelem="textrect"
     font-size="11"
     id="text"
     x="30.021544"
     y="5.2496076"
     oryx:align="middle center"
     transform="scale(0.90370848,1.1065515)" />
  <ellipse
     d="M 120,25 C 120,38.807119 93.137085,50 60,50 26.862915,50 0,38.807119 0,25 0,11.192881 26.862915,0 60,0 c 33.137085,0 60,11.192881 60,25 z"
     style="fill:#0066cc;stroke:#000000;stroke-width:1"
     sodipodi:ry="25"
     sodipodi:rx="60"
     sodipodi:cy="25"
     sodipodi:cx="60"
     id="celem-4"
     oryx:resize="vertical horizontal"
     cx="60"
     cy="25"
     rx="60"
     ry="25"
     transform="matrix(0.16271187,0,0,0.21339868,18.440678,23.166728)" />
  <g
     id="g4064"
     transform="matrix(0.9482029,-0.03642093,0.03336001,0.86851331,0.07624889,2.9402152)">
    <path
       inkscape:connector-curvature="0"
       id="path4590"
       d="m 11.445213,18.561996 8.422379,-5.887966 0,0"
       style="fill:none;stroke:#000000;stroke-width:0.41204837px;stroke-linecap:butt;stroke-linejoin:miter;stroke-opacity:1" />
    <path
       inkscape:transform-center-x="0.63284022"
       inkscape:connector-curvature="0"
       id="path4044"
       d="m 19.285857,12.832555 0.210891,0.281681 0.353533,-0.510846 z"
       style="fill:none;stroke:#000000;stroke-width:0.44812036px;stroke-linecap:butt;stroke-linejoin:miter;stroke-opacity:1" />
  </g>
  <g
     id="g4068"
     transform="matrix(0.9116049,0,0,0.92334014,1.0245031,1.4159312)">
    <path
       inkscape:connector-curvature="0"
       id="path4590-7"
       d="m 11.590025,18.470307 7.347383,6.002863 0,0"
       style="fill:none;stroke:#000000;stroke-width:0.38775474px;stroke-linecap:butt;stroke-linejoin:miter;stroke-opacity:1" />
    <path
       inkscape:transform-center-y="-0.52880437"
       inkscape:transform-center-x="0.063544045"
       inkscape:connector-curvature="0"
       id="path4044-6"
       d="m 18.528691,23.887773 -0.241808,0.255633 0.563429,0.261718 z"
       style="fill:none;stroke:#000000;stroke-width:0.44812036px;stroke-linecap:butt;stroke-linejoin:miter;stroke-opacity:1" />
  </g>
</svg>
