<?xml version="1.0" encoding="UTF-8" standalone="no"?>
<svg
   xmlns:dc="http://purl.org/dc/elements/1.1/"
   xmlns:cc="http://creativecommons.org/ns#"
   xmlns:rdf="http://www.w3.org/1999/02/22-rdf-syntax-ns#"
   xmlns:svg="http://www.w3.org/2000/svg"
   xmlns="http://www.w3.org/2000/svg"
   xmlns:xlink="http://www.w3.org/1999/xlink"
   xmlns:sodipodi="http://sodipodi.sourceforge.net/DTD/sodipodi-0.dtd"
   xmlns:inkscape="http://www.inkscape.org/namespaces/inkscape"
   width="48"
   height="48"
   viewBox="0 0 38.4 38.4"
   version="1.1"
   id="svg2"
   inkscape:version="0.48.4 r9939"
   sodipodi:docname="bar-chart.svg">
  <metadata
     id="metadata80">
    <rdf:RDF>
      <cc:Work
         rdf:about="">
        <dc:format>image/svg+xml</dc:format>
        <dc:type
           rdf:resource="http://purl.org/dc/dcmitype/StillImage" />
      </cc:Work>
    </rdf:RDF>
  </metadata>
  <defs
     id="defs78">
    <linearGradient
       inkscape:collect="always"
       xlink:href="#linearGradient3258"
       id="linearGradient2516"
       gradientUnits="userSpaceOnUse"
       x1="30"
       y1="57"
       x2="21"
       y2="13"
       gradientTransform="translate(0,-4)" />
    <linearGradient
       id="linearGradient3258">
      <stop
         style="stop-color:#4e9a06;stop-opacity:1"
         offset="0"
         id="stop3262" />
      <stop
         id="stop3264"
         offset="1"
         style="stop-color:#8ae234;stop-opacity:1" />
    </linearGradient>
    <linearGradient
       inkscape:collect="always"
       xlink:href="#linearGradient3258-1"
       id="linearGradient2516-2"
       gradientUnits="userSpaceOnUse"
       x1="30"
       y1="57"
       x2="21"
       y2="13"
       gradientTransform="translate(0,-4)" />
    <linearGradient
       id="linearGradient3258-1">
      <stop
         style="stop-color:#4e9a06;stop-opacity:1"
         offset="0"
         id="stop3262-9" />
      <stop
         id="stop3264-0"
         offset="1"
         style="stop-color:#8ae234;stop-opacity:1" />
    </linearGradient>
    <linearGradient
       id="linearGradient3258-0">
      <stop
         style="stop-color:#4e9a06;stop-opacity:1"
         offset="0"
         id="stop3262-5" />
      <stop
         id="stop3264-6"
         offset="1"
         style="stop-color:#8ae234;stop-opacity:1" />
    </linearGradient>
    <linearGradient
       id="linearGradient3133">
      <stop
         style="stop-color:#4e9a06;stop-opacity:1"
         offset="0"
         id="stop3135" />
      <stop
         id="stop3137"
         offset="1"
         style="stop-color:#8ae234;stop-opacity:1" />
    </linearGradient>
    <linearGradient
       id="linearGradient3588">
      <stop
         id="stop3590"
         offset="0"
         style="stop-color:#729fcf;stop-opacity:1" />
      <stop
         id="stop3592"
         offset="1"
         style="stop-color:#204a87;stop-opacity:1" />
    </linearGradient>
    <linearGradient
       id="linearGradient3144">
      <stop
         id="stop3146"
         offset="0"
         style="stop-color:#729fcf;stop-opacity:1" />
      <stop
         id="stop3148"
         offset="1"
         style="stop-color:#204a87;stop-opacity:1" />
    </linearGradient>
    <linearGradient
       id="linearGradient3270">
      <stop
         style="stop-color:#729fcf;stop-opacity:1"
         offset="0"
         id="stop3272" />
      <stop
         style="stop-color:#204a87;stop-opacity:1"
         offset="1"
         id="stop3274" />
    </linearGradient>
    <linearGradient
       id="linearGradient3155">
      <stop
         style="stop-color:#4e9a06;stop-opacity:1"
         offset="0"
         id="stop3157" />
      <stop
         id="stop3159"
         offset="1"
         style="stop-color:#8ae234;stop-opacity:1" />
    </linearGradient>
    <linearGradient
       inkscape:collect="always"
       xlink:href="#linearGradient3258-0"
       id="linearGradient3125"
       gradientUnits="userSpaceOnUse"
       gradientTransform="matrix(0.8,0,0,0.8,-30.087619,-9.297446)"
       x1="30"
       y1="57"
       x2="21"
       y2="13" />
    <linearGradient
       inkscape:collect="always"
       xlink:href="#linearGradient3270"
       id="linearGradient3127"
       gradientUnits="userSpaceOnUse"
       gradientTransform="matrix(0.8,0,0,0.8,-30.087619,-9.297446)"
       x1="8"
       y1="34"
       x2="17"
       y2="57" />
    <linearGradient
       inkscape:collect="always"
       xlink:href="#linearGradient3588"
       id="linearGradient3129"
       gradientUnits="userSpaceOnUse"
       gradientTransform="matrix(0.8,0,0,0.8,-30.087619,-9.297446)"
       x1="8"
       y1="34"
       x2="17"
       y2="44" />
    <linearGradient
       inkscape:collect="always"
       xlink:href="#linearGradient3588"
       id="linearGradient3131"
       gradientUnits="userSpaceOnUse"
       gradientTransform="matrix(-0.8,0,0,-0.8,-10.087619,63.502554)"
       x1="17"
       y1="44"
       x2="8"
       y2="34" />
    <linearGradient
       inkscape:collect="always"
       xlink:href="#linearGradient3258-0"
       id="linearGradient3134"
       gradientUnits="userSpaceOnUse"
       gradientTransform="matrix(0.8,0,0,1.2190476,-19.687619,-40.345065)"
       x1="17"
       y1="44.5"
       x2="8"
       y2="34" />
    <linearGradient
       inkscape:collect="always"
       xlink:href="#linearGradient3258-0"
       id="linearGradient3136"
       gradientUnits="userSpaceOnUse"
       gradientTransform="matrix(-0.8,0,0,-1.3714286,0.31238128,82.931122)"
       x1="8"
       y1="34"
       x2="17"
       y2="44.5" />
    <linearGradient
       inkscape:collect="always"
       xlink:href="#linearGradient3248"
       id="linearGradient2480"
       gradientUnits="userSpaceOnUse"
       gradientTransform="matrix(0.8,0,0,0.53333328,-11.510338,7.9743818)"
       x1="17"
       y1="44.500004"
       x2="8"
       y2="34.000004" />
    <linearGradient
       id="linearGradient3248">
      <stop
         id="stop3284"
         offset="0"
         style="stop-color:#c91414;stop-opacity:1;" />
      <stop
         style="stop-color:#ef2929;stop-opacity:1"
         offset="1"
         id="stop3252" />
    </linearGradient>
    <linearGradient
       inkscape:collect="always"
       xlink:href="#linearGradient3248"
       id="linearGradient2483"
       gradientUnits="userSpaceOnUse"
       gradientTransform="matrix(-0.8,0,0,-0.53333328,8.4896619,56.24105)"
       x1="8"
       y1="34.000004"
       x2="11"
       y2="37.000004" />
    <linearGradient
       id="linearGradient3184">
      <stop
         id="stop3186"
         offset="0"
         style="stop-color:#c91414;stop-opacity:1;" />
      <stop
         style="stop-color:#ef2929;stop-opacity:1"
         offset="1"
         id="stop3188" />
    </linearGradient>
    <linearGradient
       inkscape:collect="always"
       xlink:href="#linearGradient3248"
       id="linearGradient2511"
       gradientUnits="userSpaceOnUse"
       x1="56"
       y1="57"
       x2="50.657143"
       y2="48.269386"
       gradientTransform="matrix(0.8,0,0,0.8,-42.710338,-7.4922842)" />
    <linearGradient
       id="linearGradient3191">
      <stop
         id="stop3193"
         offset="0"
         style="stop-color:#c91414;stop-opacity:1;" />
      <stop
         style="stop-color:#ef2929;stop-opacity:1"
         offset="1"
         id="stop3195" />
    </linearGradient>
    <linearGradient
       inkscape:collect="always"
       xlink:href="#linearGradient3248"
       id="linearGradient3227"
       gradientUnits="userSpaceOnUse"
       gradientTransform="matrix(0.9196092,0,0,0.52397241,19.76817,6.992933)"
       x1="17"
       y1="44.500004"
       x2="8"
       y2="34.000004" />
    <linearGradient
       inkscape:collect="always"
       xlink:href="#linearGradient3248"
       id="linearGradient3230"
       gradientUnits="userSpaceOnUse"
       gradientTransform="matrix(-0.9196092,0,0,-0.52397241,42.7584,54.412442)"
       x1="8"
       y1="34.000004"
       x2="11"
       y2="37.000004" />
    <linearGradient
       inkscape:collect="always"
       xlink:href="#linearGradient3248"
       id="linearGradient3233"
       gradientUnits="userSpaceOnUse"
       gradientTransform="matrix(0.9196092,0,0,0.7859587,-16.096589,-8.2022678)"
       x1="56"
       y1="57"
       x2="50.657143"
       y2="48.269386" />
    <linearGradient
       inkscape:collect="always"
       xlink:href="#linearGradient3248"
       id="linearGradient3251"
       gradientUnits="userSpaceOnUse"
       gradientTransform="matrix(0.9196092,0,0,0.7859587,-16.096589,-8.2022678)"
       x1="56"
       y1="57"
       x2="50.657143"
       y2="48.269386" />
    <linearGradient
       inkscape:collect="always"
       xlink:href="#linearGradient3248"
       id="linearGradient3253"
       gradientUnits="userSpaceOnUse"
       gradientTransform="matrix(-0.9196092,0,0,-0.52397241,42.7584,54.412442)"
       x1="8"
       y1="34.000004"
       x2="11"
       y2="37.000004" />
    <linearGradient
       inkscape:collect="always"
       xlink:href="#linearGradient3248"
       id="linearGradient3255"
       gradientUnits="userSpaceOnUse"
       gradientTransform="matrix(0.9196092,0,0,0.52397241,19.76817,6.992933)"
       x1="17"
       y1="44.500004"
       x2="8"
       y2="34.000004" />
    <linearGradient
       inkscape:collect="always"
       xlink:href="#linearGradient3258-0"
       id="linearGradient3050"
       gradientUnits="userSpaceOnUse"
       gradientTransform="matrix(-0.9196092,0,0,-1.3473578,31.002317,82.329865)"
       x1="8"
       y1="34"
       x2="17"
       y2="44.5" />
    <linearGradient
       inkscape:collect="always"
       xlink:href="#linearGradient3258-0"
       id="linearGradient3053"
       gradientUnits="userSpaceOnUse"
       gradientTransform="matrix(0.9196092,0,0,1.1976513,8.0120866,-38.782624)"
       x1="17"
       y1="44.5"
       x2="8"
       y2="34" />
    <linearGradient
       inkscape:collect="always"
       xlink:href="#linearGradient3588"
       id="linearGradient3056"
       gradientUnits="userSpaceOnUse"
       gradientTransform="matrix(-0.9196092,0,0,-0.7859587,19.047397,63.2423)"
       x1="17"
       y1="44"
       x2="8"
       y2="34" />
    <linearGradient
       inkscape:collect="always"
       xlink:href="#linearGradient3588"
       id="linearGradient3059"
       gradientUnits="userSpaceOnUse"
       gradientTransform="matrix(0.9196092,0,0,0.7859587,-3.942833,-8.2799413)"
       x1="8"
       y1="34"
       x2="17"
       y2="44" />
    <linearGradient
       inkscape:collect="always"
       xlink:href="#linearGradient3270"
       id="linearGradient3062"
       gradientUnits="userSpaceOnUse"
       gradientTransform="matrix(0.9196092,0,0,0.7859587,-3.942833,-8.2799413)"
       x1="8"
       y1="34"
       x2="17"
       y2="57" />
    <linearGradient
       inkscape:collect="always"
       xlink:href="#linearGradient3258-0"
       id="linearGradient3065"
       gradientUnits="userSpaceOnUse"
       gradientTransform="matrix(0.9196092,0,0,0.7859587,-3.942833,-8.2799413)"
       x1="30"
       y1="57"
       x2="21"
       y2="13" />
  </defs>
  <sodipodi:namedview
     pagecolor="#ffffff"
     bordercolor="#666666"
     borderopacity="1"
     objecttolerance="10"
     gridtolerance="10"
     guidetolerance="10"
     inkscape:pageopacity="0"
     inkscape:pageshadow="2"
     inkscape:window-width="1301"
     inkscape:window-height="744"
     id="namedview76"
     showgrid="false"
     inkscape:zoom="7.415558"
     inkscape:cx="22.211733"
     inkscape:cy="26.669295"
     inkscape:window-x="65"
     inkscape:window-y="24"
     inkscape:window-maximized="1"
     inkscape:current-layer="svg2"
     showguides="true"
     inkscape:guide-bbox="true">
    <sodipodi:guide
       orientation="1,0"
       position="1.8879227,15.507936"
       id="guide3220" />
    <sodipodi:guide
       orientation="1,0"
       position="46.523808,8.0910971"
       id="guide3222" />
    <sodipodi:guide
       orientation="0,1"
       position="37.219047,47.602621"
       id="guide3224" />
    <sodipodi:guide
       orientation="0,1"
       position="-7.9562455,2.4947549"
       id="guide3061" />
  </sodipodi:namedview>
  <g
     id="g3083">
    <path
       style="fill:#ffffff;stroke:#555753;stroke-width:0.01673085000000000"
       inkscape:connector-curvature="0"
       id="path74"
       d="m 0.09757883,36.480603 c 0.77572475,0 1.56761077,0.03943 2.35949677,0.03943 0.4363452,0 0.8565296,0 1.2928749,0 0.4848281,0 0.9534953,-0.01971 1.4383234,-0.01971 0.9050125,0 1.8261858,0 2.7473595,0.01971 0.9696558,0 1.9554733,0 2.9251296,0 0.436345,0 0.856528,0 1.292875,0 0.484828,0 0.953495,0 1.438323,0 0.921175,0 1.842346,0 2.763521,0 0.969656,0 1.939313,0 2.908966,0 0.436348,0 0.856533,0 1.292878,-0.01971 0.404022,0 0.824207,0 1.244391,0 1.212071,0 2.424141,0.01971 3.652373,0.03943 0.727241,0 1.470645,-0.01971 2.214048,-0.01971 0.436346,0 0.85653,0 1.292875,0 1.066622,0 2.117081,-0.01971 3.183705,-0.01971 0.87269,0 1.761542,0 2.634232,0.01971 0.436345,-0.01971 0.85653,-0.01971 1.292875,-0.01971 0.808048,0.197073 1.939313,-0.433559 2.569592,0.453267 -0.01617,0.413852 -0.129285,0.788291 -0.210094,1.182435 -12.783302,-0.07883 -25.550442,-0.05912 -38.33374417,0 -0.16160958,-0.551803 -0.16160958,-1.123313 0,-1.655409 z" />
    <g
       transform="translate(-1.0788129,-0.05394065)"
       id="g3079">
      <path
         inkscape:connector-curvature="0"
         style="fill:#ffffff;fill-opacity:1;stroke:none"
         d="m 1.5748222,18.337861 c 0,0 0,-1.467124 1.7078464,-1.467124 3.4156907,0 5.1235372,0 8.5392274,0 1.707846,0 1.707846,1.467124 1.707846,1.467124 0,2.934245 0,18.181843 0,18.181843 l -11.9549198,0 c 0,-8.802737 0,-1.915389 0,-18.181843 z"
         id="path2430"
         sodipodi:nodetypes="csssccs" />
      <rect
         style="fill:#000000"
         id="rect3059"
         width="8.6305037"
         height="17.908295"
         x="3.3443205"
         y="18.495901" />
    </g>
    <g
       transform="translate(-0.21576259,0)"
       id="g3075">
      <path
         inkscape:connector-curvature="0"
         style="fill:#ffffff;fill-opacity:1;stroke:none"
         d="m 13.583682,1.8057577 c 0,0 0,-1.46712364 1.707845,-1.46712364 3.415691,0 5.123538,0 8.539229,0 1.707846,0 1.707846,1.46712364 1.707846,1.46712364 0,2.9342451 0,34.6869763 0,34.6869763 l -11.95492,0 c 0,-8.802737 0,-18.420521 0,-34.6869763 z"
         id="path2428"
         sodipodi:nodetypes="csssccs" />
      <rect
         style="fill:#000000"
         id="rect3063"
         width="8.6844435"
         height="34.629894"
         x="15.157322"
         y="1.8282424" />
    </g>
    <g
       transform="translate(0.86305036,-0.05394065)"
       id="g3067">
      <g
         id="g3245"
         transform="matrix(1,0,0,1.8578792,0,-31.396138)"
         style="fill:#ffffff">
        <path
           style="fill:#ffffff;fill-opacity:1;stroke:none"
           d="m 25.285825,24.860395 c -0.0012,-0.82264 0.746479,-1.482145 1.552687,-1.462914 2.949716,-0.007 5.899829,-0.007 8.849545,0 0.853953,-0.02757 1.618257,0.72144 1.552688,1.583041 0,3.872285 0,7.744571 0,11.616856 -3.984973,0 -7.969947,0 -11.95492,0 0,-3.912328 0,-7.824655 0,-11.736983 z"
           id="rect3240"
           inkscape:connector-curvature="0" />
        <path
           style="fill:#ffffff;fill-opacity:1;stroke:none"
           d="m 27.125044,24.807998 c 2.758828,0 5.517655,0 8.276483,0 0,3.929793 0,7.859587 0,11.78938 -2.758828,0 -5.517655,0 -8.276483,0 0,-3.929793 0,-7.859587 0,-11.78938 z"
           id="rect3246"
           inkscape:connector-curvature="0" />
        <path
           style="fill:#ffffff;fill-opacity:1;stroke:none"
           d="m 35.401527,36.597378 c 0,-0.578553 0,-1.157105 0,-1.735658 -1.112485,0.196582 -2.125484,-0.44216 -2.94441,-1.119775 -1.610087,-1.174205 -3.411597,-2.101837 -5.332073,-2.646269 0,1.833904 0,3.667807 0,5.501711 2.758825,-6e-6 5.517673,1.2e-5 8.276483,-9e-6 z"
           id="path3674"
           inkscape:connector-curvature="0" />
        <path
           style="fill:#ffffff;fill-opacity:1;stroke:none"
           d="m 27.125044,24.807998 c 0,0.578553 0,1.157105 0,1.735658 1.112483,-0.196563 2.125485,0.442163 2.944409,1.119781 1.610088,1.174205 3.411598,2.101838 5.332074,2.64627 0,-1.833904 0,-3.667807 0,-5.501711 -2.758827,1e-6 -5.517659,-3e-6 -8.276483,2e-6 z"
           id="path3678"
           inkscape:connector-curvature="0" />
      </g>
      <rect
         style="fill:#000000"
         id="rect3065"
         width="10.720704"
         height="28.386267"
         x="33.847755"
         y="17.118979"
         transform="scale(0.8,0.8)" />
    </g>
  </g>
</svg>
