<?xml version="1.0" encoding="UTF-8" standalone="no"?>
<!-- Generator: IcoMoon.io -->

<svg
   xmlns:dc="http://purl.org/dc/elements/1.1/"
   xmlns:cc="http://creativecommons.org/ns#"
   xmlns:rdf="http://www.w3.org/1999/02/22-rdf-syntax-ns#"
   xmlns:svg="http://www.w3.org/2000/svg"
   xmlns="http://www.w3.org/2000/svg"
   xmlns:sodipodi="http://sodipodi.sourceforge.net/DTD/sodipodi-0.dtd"
   xmlns:inkscape="http://www.inkscape.org/namespaces/inkscape"
   version="1.1"
   id="Layer_1"
   x="0px"
   y="0px"
   width="48px"
   height="48px"
   viewBox="0 0 48 48"
   enable-background="new 0 0 16 16"
   xml:space="preserve"
   fill="#000000"
   inkscape:version="0.48.4 r9939"
   sodipodi:docname="browser.svg"
   inkscape:export-filename="/home/javier/Escritorio/alcoor/diseño/iconos/iconos seleccionados/final/browser.png"
   inkscape:export-xdpi="180"
   inkscape:export-ydpi="180"><metadata
     id="metadata9"><rdf:RDF><cc:Work
         rdf:about=""><dc:format>image/svg+xml</dc:format><dc:type
           rdf:resource="http://purl.org/dc/dcmitype/StillImage" /><dc:title /></cc:Work></rdf:RDF></metadata><defs
     id="defs7" /><sodipodi:namedview
     pagecolor="#ffffff"
     bordercolor="#666666"
     borderopacity="1"
     objecttolerance="10"
     gridtolerance="10"
     guidetolerance="10"
     inkscape:pageopacity="0"
     inkscape:pageshadow="2"
     inkscape:window-width="1301"
     inkscape:window-height="744"
     id="namedview5"
     showgrid="false"
     showguides="true"
     inkscape:guide-bbox="true"
     inkscape:zoom="6.9532167"
     inkscape:cx="37.72526"
     inkscape:cy="24.476572"
     inkscape:window-x="65"
     inkscape:window-y="24"
     inkscape:window-maximized="1"
     inkscape:current-layer="Layer_1"><sodipodi:guide
       orientation="1,0"
       position="24.017661,55.370056"
       id="guide3051" /><sodipodi:guide
       orientation="0,1"
       position="39.837677,27.325482"
       id="guide3053" /><sodipodi:guide
       orientation="0,1"
       position="28.619847,20.853658"
       id="guide3055" /><sodipodi:guide
       orientation="1,0"
       position="8.772918,13.950378"
       id="guide3057" /><sodipodi:guide
       orientation="1,0"
       position="38.830949,12.224558"
       id="guide3059" /><sodipodi:guide
       orientation="0,1"
       position="-9.0605547,17.977291"
       id="guide3063" /><sodipodi:guide
       orientation="0,1"
       position="37.248947,7.9100081"
       id="guide3065" /><sodipodi:guide
       orientation="1,0"
       position="31.640032,13.375105"
       id="guide3067" /><sodipodi:guide
       orientation="1,0"
       position="29.482757,11.649285"
       id="guide3069" /></sodipodi:namedview><path
     d="M 39.00,48.00L9.00,48.00 c-4.971,0.00-9.00-4.032-9.00-9.00L0.00,9.00 c0.00-4.971, 4.029-9.00, 9.00-9.00l30.00,0.00 c 4.971,0.00, 9.00,4.029, 9.00,9.00l0.00,30.00 C 48.00,43.968, 43.971,48.00, 39.00,48.00z M 9.00,42.00l30.00,0.00 c 1.659,0.00, 3.00-1.341, 3.00-3.00L42.00,18.00 L6.00,18.00 l0.00,21.00 C 6.00,40.659, 7.341,42.00, 9.00,42.00z M 39.00,6.00L9.00,6.00 C 7.341,6.00, 6.00,7.344, 6.00,9.00l0.00,6.00 l36.00,0.00 L42.00,9.00 C 42.00,7.344, 40.659,6.00, 39.00,6.00z M 21.00,9.00l18.00,0.00 l0.00,3.00 L21.00,12.00 L21.00,9.00 z M 15.00,9.00l3.00,0.00 l0.00,3.00 L15.00,12.00 L15.00,9.00 z M 9.00,9.00l3.00,0.00 l0.00,3.00 L9.00,12.00 L9.00,9.00 z"
     id="path3" /><path
     style="fill:#000000;stroke:#000000;stroke-width:1px;stroke-linecap:butt;stroke-linejoin:miter;stroke-opacity:1"
     d="m 8.772918,20.674518 30.058031,0 0,6.471824 -30.058031,0 z"
     id="path3061"
     inkscape:connector-curvature="0" /><path
     style="fill:#000000;stroke:#000000;stroke-width:0.96609175000000003px;stroke-linecap:butt;stroke-linejoin:miter;stroke-opacity:1"
     d="m 8.772918,30.022709 20.709839,0 0,10.067283 -20.709839,0 z"
     id="path3071"
     inkscape:connector-curvature="0" /><path
     style="fill:#000000;stroke:#000000;stroke-width:0.96609175000000003px;stroke-linecap:butt;stroke-linejoin:miter;stroke-opacity:1"
     d="m 31.640032,30.022709 0,10.067283 7.190917,0 0,-10.067283 z"
     id="path3073"
     inkscape:connector-curvature="0" /></svg>