<?xml version="1.0" encoding="UTF-8" standalone="no"?>
<svg
   xmlns:dc="http://purl.org/dc/elements/1.1/"
   xmlns:cc="http://creativecommons.org/ns#"
   xmlns:rdf="http://www.w3.org/1999/02/22-rdf-syntax-ns#"
   xmlns:svg="http://www.w3.org/2000/svg"
   xmlns="http://www.w3.org/2000/svg"
   xmlns:sodipodi="http://sodipodi.sourceforge.net/DTD/sodipodi-0.dtd"
   xmlns:inkscape="http://www.inkscape.org/namespaces/inkscape"
   width="48"
   height="48"
   viewBox="0 0 38.4 38.4"
   version="1.1"
   id="svg2"
   inkscape:version="0.48.4 r9939"
   sodipodi:docname="minmaps.svg"
   inkscape:export-filename="/home/javier/Escritorio/alcoor/diseño/iconos/iconos seleccionados/final/minmaps.png"
   inkscape:export-xdpi="180"
   inkscape:export-ydpi="180">
  <metadata
     id="metadata10">
    <rdf:RDF>
      <cc:Work
         rdf:about="">
        <dc:format>image/svg+xml</dc:format>
        <dc:type
           rdf:resource="http://purl.org/dc/dcmitype/StillImage" />
        <dc:title />
      </cc:Work>
    </rdf:RDF>
  </metadata>
  <defs
     id="defs8" />
  <sodipodi:namedview
     pagecolor="#ffffff"
     bordercolor="#666666"
     borderopacity="1"
     objecttolerance="10"
     gridtolerance="10"
     guidetolerance="10"
     inkscape:pageopacity="0"
     inkscape:pageshadow="2"
     inkscape:window-width="1301"
     inkscape:window-height="744"
     id="namedview6"
     showgrid="false"
     inkscape:zoom="5.9"
     inkscape:cx="35.497994"
     inkscape:cy="34.251755"
     inkscape:window-x="65"
     inkscape:window-y="24"
     inkscape:window-maximized="1"
     inkscape:current-layer="svg2"
     showguides="true"
     inkscape:guide-bbox="true">
    <sodipodi:guide
       orientation="1,0"
       position="12.542373,25.084746"
       id="guide2982" />
    <sodipodi:guide
       orientation="1,0"
       position="35.084746,16.779661"
       id="guide2984" />
    <sodipodi:guide
       orientation="0,1"
       position="27.966102,37.627119"
       id="guide2986" />
    <sodipodi:guide
       orientation="0,1"
       position="49.152542,10"
       id="guide2988" />
    <sodipodi:guide
       orientation="1,0"
       position="0.33898305,23.898305"
       id="guide2990" />
    <sodipodi:guide
       orientation="0,1"
       position="28.983051,47.79661"
       id="guide2992" />
  </sodipodi:namedview>
  <path
     d="m 0.34375955,0.27459126 c 3.25904865,0 6.48582985,0 9.74487845,0 0,2.60677194 0,5.16781064 0,7.77458244 -1.4520514,0 -2.9041028,0 -4.388422,0 0.1290713,2.8354373 1.2584445,5.5336723 2.9041031,7.1343223 1.4843189,1.509183 3.2913159,2.332375 5.0983139,2.652505 0,-0.823191 0,-1.646382 0,-2.42384 3.710798,-0.04573 7.453863,-0.04573 11.164662,0 0,0.777458 0,1.600649 0,2.42384 2.032872,-0.365863 4.065745,-1.371985 5.646867,-3.24703 1.322982,-1.646383 2.226478,-4.024492 2.355554,-6.5397973 -1.484323,0 -2.936375,0 -4.388426,0 0,-2.6067718 0,-5.1678105 0,-7.77458244 3.259051,0 6.485831,0 9.744881,0 0.03227,2.60677194 0.03227,5.16781064 0,7.77458244 -1.290714,0 -2.613698,0 -3.904405,0 -0.161342,3.4756953 -1.355248,6.9513903 -3.452657,8.8721713 -1.19391,0.960389 -2.452355,1.692113 -3.775335,2.240909 1.645658,1.189054 3.549462,1.737847 4.840176,3.658627 1.484316,1.966511 2.226474,4.801946 2.387816,7.637382 1.290707,0 2.613691,0 3.904405,0 0.03227,2.606775 0.03227,5.167811 0,7.774588 -3.25905,0 -6.48583,0 -9.744881,0 0,-2.606777 0,-5.167813 0,-7.774588 1.484322,0 3.000908,0.04574 4.485228,-0.04573 -0.387214,-2.881169 -1.419784,-5.716606 -3.194516,-7.271521 -1.452051,-1.371986 -3.194512,-2.149444 -4.904707,-2.469575 0,0.823193 0,1.692116 0,2.515308 -3.710799,0.04573 -7.453864,0.320128 -11.132393,0 -0.03227,-0.823192 -0.03227,-1.600651 -0.03227,-2.423841 -2.161943,0.411595 -4.3238867,1.509184 -5.9050089,3.658626 -1.0971056,1.463451 -1.7424621,3.475696 -2.0006044,5.579406 1.4197834,0 2.8718349,0 4.2916183,0 0,2.743973 0,5.48794 0,8.231916 -3.2590485,0 -6.4858297,0 -9.74487841,0 -0.0322678,-2.743976 -0.0645356,-5.487943 0.0322678,-8.231916 1.29071241,0 2.58142481,0 3.87213731,0 0.2258746,-2.698236 0.9680345,-5.350741 2.3555502,-7.225788 1.0971058,-1.692115 2.7104957,-2.332374 4.0980121,-3.38423 -0.03227,-0.137198 -0.06453,-0.411595 -0.09681,-0.594527 C 9.2496749,17.927467 7.7008205,17.33294 6.6359826,15.686558 5.1516634,13.720045 4.4095038,10.884611 4.2481646,8.0491737 c -1.2907125,0 -2.6136927,0 -3.90440505,0 -0.0322678,-2.6067718 -0.0322678,-5.1678105 0,-7.77458244 z"
     id="path4"
     style="fill:#000000;stroke:#6a6a6a;stroke-width:0.03601389"
     inkscape:connector-curvature="0" />
  <path
     style="fill:#000000;stroke:#000000;stroke-width:1px;stroke-linecap:butt;stroke-linejoin:miter;stroke-opacity:1"
     d="m 0.33898305,0.20339 12.20338995,0 0,9.661017 -12.20338995,0 z"
     id="path2994"
     inkscape:connector-curvature="0"
     transform="scale(0.8,0.8)" />
  <path
     style="fill:#000000;stroke:#000000;stroke-width:0.80000000999999998px;stroke-linecap:butt;stroke-linejoin:miter;stroke-opacity:1"
     d="m 0.2711864,30.4 9.7627116,0 0,7.728814 -9.7627116,0 z"
     id="path2994-8"
     inkscape:connector-curvature="0" />
  <path
     style="fill:#000000;stroke:#000000;stroke-width:0.80000000999999998px;stroke-linecap:butt;stroke-linejoin:miter;stroke-opacity:1"
     d="m 28.067797,0.5694908 9.762712,0 0,7.728814 -9.762712,0 z"
     id="path2994-81"
     inkscape:connector-curvature="0" />
  <path
     style="fill:#000000;stroke:#000000;stroke-width:0.80000000999999998px;stroke-linecap:butt;stroke-linejoin:miter;stroke-opacity:1"
     d="m 28.067797,30.4 9.762712,0 0,7.728814 -9.762712,0 z"
     id="path2994-1"
     inkscape:connector-curvature="0" />
  <path
     style="fill:#000000;stroke:#000000;stroke-width:0.84313691000000002px;stroke-linecap:butt;stroke-linejoin:miter;stroke-opacity:1"
     d="m 13.716483,15.167331 10.533135,0 0,7.956864 -10.533135,0 z"
     id="path2994-0"
     inkscape:connector-curvature="0" />
</svg>
