<?xml version="1.0" encoding="UTF-8" standalone="no"?>
<svg
   xmlns:dc="http://purl.org/dc/elements/1.1/"
   xmlns:cc="http://creativecommons.org/ns#"
   xmlns:rdf="http://www.w3.org/1999/02/22-rdf-syntax-ns#"
   xmlns:svg="http://www.w3.org/2000/svg"
   xmlns="http://www.w3.org/2000/svg"
   xmlns:xlink="http://www.w3.org/1999/xlink"
   xmlns:sodipodi="http://sodipodi.sourceforge.net/DTD/sodipodi-0.dtd"
   xmlns:inkscape="http://www.inkscape.org/namespaces/inkscape"
   width="48"
   height="48"
   viewBox="0 0 38.4 38.4"
   version="1.1"
   id="svg2"
   inkscape:version="0.48.4 r9939"
   sodipodi:docname="powerpoint.svg">
  <metadata
     id="metadata80">
    <rdf:RDF>
      <cc:Work
         rdf:about="">
        <dc:format>image/svg+xml</dc:format>
        <dc:type
           rdf:resource="http://purl.org/dc/dcmitype/StillImage" />
      </cc:Work>
    </rdf:RDF>
  </metadata>
  <defs
     id="defs78">
    <linearGradient
       inkscape:collect="always"
       xlink:href="#linearGradient3258"
       id="linearGradient2516"
       gradientUnits="userSpaceOnUse"
       x1="30"
       y1="57"
       x2="21"
       y2="13"
       gradientTransform="translate(0,-4)" />
    <linearGradient
       id="linearGradient3258">
      <stop
         style="stop-color:#4e9a06;stop-opacity:1"
         offset="0"
         id="stop3262" />
      <stop
         id="stop3264"
         offset="1"
         style="stop-color:#8ae234;stop-opacity:1" />
    </linearGradient>
    <linearGradient
       inkscape:collect="always"
       xlink:href="#linearGradient3258-1"
       id="linearGradient2516-2"
       gradientUnits="userSpaceOnUse"
       x1="30"
       y1="57"
       x2="21"
       y2="13"
       gradientTransform="translate(0,-4)" />
    <linearGradient
       id="linearGradient3258-1">
      <stop
         style="stop-color:#4e9a06;stop-opacity:1"
         offset="0"
         id="stop3262-9" />
      <stop
         id="stop3264-0"
         offset="1"
         style="stop-color:#8ae234;stop-opacity:1" />
    </linearGradient>
    <linearGradient
       id="linearGradient3258-0">
      <stop
         style="stop-color:#4e9a06;stop-opacity:1"
         offset="0"
         id="stop3262-5" />
      <stop
         id="stop3264-6"
         offset="1"
         style="stop-color:#8ae234;stop-opacity:1" />
    </linearGradient>
    <linearGradient
       id="linearGradient3133">
      <stop
         style="stop-color:#4e9a06;stop-opacity:1"
         offset="0"
         id="stop3135" />
      <stop
         id="stop3137"
         offset="1"
         style="stop-color:#8ae234;stop-opacity:1" />
    </linearGradient>
    <linearGradient
       id="linearGradient3588">
      <stop
         id="stop3590"
         offset="0"
         style="stop-color:#729fcf;stop-opacity:1" />
      <stop
         id="stop3592"
         offset="1"
         style="stop-color:#204a87;stop-opacity:1" />
    </linearGradient>
    <linearGradient
       id="linearGradient3144">
      <stop
         id="stop3146"
         offset="0"
         style="stop-color:#729fcf;stop-opacity:1" />
      <stop
         id="stop3148"
         offset="1"
         style="stop-color:#204a87;stop-opacity:1" />
    </linearGradient>
    <linearGradient
       id="linearGradient3270">
      <stop
         style="stop-color:#729fcf;stop-opacity:1"
         offset="0"
         id="stop3272" />
      <stop
         style="stop-color:#204a87;stop-opacity:1"
         offset="1"
         id="stop3274" />
    </linearGradient>
    <linearGradient
       id="linearGradient3155">
      <stop
         style="stop-color:#4e9a06;stop-opacity:1"
         offset="0"
         id="stop3157" />
      <stop
         id="stop3159"
         offset="1"
         style="stop-color:#8ae234;stop-opacity:1" />
    </linearGradient>
    <linearGradient
       inkscape:collect="always"
       xlink:href="#linearGradient3258-0"
       id="linearGradient3125"
       gradientUnits="userSpaceOnUse"
       gradientTransform="matrix(0.8,0,0,0.8,-30.087619,-9.297446)"
       x1="30"
       y1="57"
       x2="21"
       y2="13" />
    <linearGradient
       inkscape:collect="always"
       xlink:href="#linearGradient3270"
       id="linearGradient3127"
       gradientUnits="userSpaceOnUse"
       gradientTransform="matrix(0.8,0,0,0.8,-30.087619,-9.297446)"
       x1="8"
       y1="34"
       x2="17"
       y2="57" />
    <linearGradient
       inkscape:collect="always"
       xlink:href="#linearGradient3588"
       id="linearGradient3129"
       gradientUnits="userSpaceOnUse"
       gradientTransform="matrix(0.8,0,0,0.8,-30.087619,-9.297446)"
       x1="8"
       y1="34"
       x2="17"
       y2="44" />
    <linearGradient
       inkscape:collect="always"
       xlink:href="#linearGradient3588"
       id="linearGradient3131"
       gradientUnits="userSpaceOnUse"
       gradientTransform="matrix(-0.8,0,0,-0.8,-10.087619,63.502554)"
       x1="17"
       y1="44"
       x2="8"
       y2="34" />
    <linearGradient
       inkscape:collect="always"
       xlink:href="#linearGradient3258-0"
       id="linearGradient3134"
       gradientUnits="userSpaceOnUse"
       gradientTransform="matrix(0.8,0,0,1.2190476,-19.687619,-40.345065)"
       x1="17"
       y1="44.5"
       x2="8"
       y2="34" />
    <linearGradient
       inkscape:collect="always"
       xlink:href="#linearGradient3258-0"
       id="linearGradient3136"
       gradientUnits="userSpaceOnUse"
       gradientTransform="matrix(-0.8,0,0,-1.3714286,0.31238128,82.931122)"
       x1="8"
       y1="34"
       x2="17"
       y2="44.5" />
    <linearGradient
       inkscape:collect="always"
       xlink:href="#linearGradient3248"
       id="linearGradient2480"
       gradientUnits="userSpaceOnUse"
       gradientTransform="matrix(0.8,0,0,0.53333328,-11.510338,7.9743818)"
       x1="17"
       y1="44.500004"
       x2="8"
       y2="34.000004" />
    <linearGradient
       id="linearGradient3248">
      <stop
         id="stop3284"
         offset="0"
         style="stop-color:#c91414;stop-opacity:1;" />
      <stop
         style="stop-color:#ef2929;stop-opacity:1"
         offset="1"
         id="stop3252" />
    </linearGradient>
    <linearGradient
       inkscape:collect="always"
       xlink:href="#linearGradient3248"
       id="linearGradient2483"
       gradientUnits="userSpaceOnUse"
       gradientTransform="matrix(-0.8,0,0,-0.53333328,8.4896619,56.24105)"
       x1="8"
       y1="34.000004"
       x2="11"
       y2="37.000004" />
    <linearGradient
       id="linearGradient3184">
      <stop
         id="stop3186"
         offset="0"
         style="stop-color:#c91414;stop-opacity:1;" />
      <stop
         style="stop-color:#ef2929;stop-opacity:1"
         offset="1"
         id="stop3188" />
    </linearGradient>
    <linearGradient
       inkscape:collect="always"
       xlink:href="#linearGradient3248"
       id="linearGradient2511"
       gradientUnits="userSpaceOnUse"
       x1="56"
       y1="57"
       x2="50.657143"
       y2="48.269386"
       gradientTransform="matrix(0.8,0,0,0.8,-42.710338,-7.4922842)" />
    <linearGradient
       id="linearGradient3191">
      <stop
         id="stop3193"
         offset="0"
         style="stop-color:#c91414;stop-opacity:1;" />
      <stop
         style="stop-color:#ef2929;stop-opacity:1"
         offset="1"
         id="stop3195" />
    </linearGradient>
    <linearGradient
       inkscape:collect="always"
       xlink:href="#linearGradient3248"
       id="linearGradient3227"
       gradientUnits="userSpaceOnUse"
       gradientTransform="matrix(0.9196092,0,0,0.52397241,19.76817,6.992933)"
       x1="17"
       y1="44.500004"
       x2="8"
       y2="34.000004" />
    <linearGradient
       inkscape:collect="always"
       xlink:href="#linearGradient3248"
       id="linearGradient3230"
       gradientUnits="userSpaceOnUse"
       gradientTransform="matrix(-0.9196092,0,0,-0.52397241,42.7584,54.412442)"
       x1="8"
       y1="34.000004"
       x2="11"
       y2="37.000004" />
    <linearGradient
       inkscape:collect="always"
       xlink:href="#linearGradient3248"
       id="linearGradient3233"
       gradientUnits="userSpaceOnUse"
       gradientTransform="matrix(0.9196092,0,0,0.7859587,-16.096589,-8.2022678)"
       x1="56"
       y1="57"
       x2="50.657143"
       y2="48.269386" />
    <linearGradient
       inkscape:collect="always"
       xlink:href="#linearGradient3248"
       id="linearGradient3251"
       gradientUnits="userSpaceOnUse"
       gradientTransform="matrix(0.9196092,0,0,0.7859587,-16.096589,-8.2022678)"
       x1="56"
       y1="57"
       x2="50.657143"
       y2="48.269386" />
    <linearGradient
       inkscape:collect="always"
       xlink:href="#linearGradient3248"
       id="linearGradient3253"
       gradientUnits="userSpaceOnUse"
       gradientTransform="matrix(-0.9196092,0,0,-0.52397241,42.7584,54.412442)"
       x1="8"
       y1="34.000004"
       x2="11"
       y2="37.000004" />
    <linearGradient
       inkscape:collect="always"
       xlink:href="#linearGradient3248"
       id="linearGradient3255"
       gradientUnits="userSpaceOnUse"
       gradientTransform="matrix(0.9196092,0,0,0.52397241,19.76817,6.992933)"
       x1="17"
       y1="44.500004"
       x2="8"
       y2="34.000004" />
  </defs>
  <sodipodi:namedview
     pagecolor="#ffffff"
     bordercolor="#666666"
     borderopacity="1"
     objecttolerance="10"
     gridtolerance="10"
     guidetolerance="10"
     inkscape:pageopacity="0"
     inkscape:pageshadow="2"
     inkscape:window-width="1301"
     inkscape:window-height="744"
     id="namedview76"
     showgrid="false"
     inkscape:zoom="5.2435913"
     inkscape:cx="23.278588"
     inkscape:cy="19.574382"
     inkscape:window-x="65"
     inkscape:window-y="24"
     inkscape:window-maximized="1"
     inkscape:current-layer="svg2"
     showguides="true"
     inkscape:guide-bbox="true">
    <sodipodi:guide
       orientation="1,0"
       position="1.8879227,15.507936"
       id="guide3220" />
    <sodipodi:guide
       orientation="1,0"
       position="46.523808,8.0910971"
       id="guide3222" />
    <sodipodi:guide
       orientation="0,1"
       position="37.219047,47.602621"
       id="guide3224" />
    <sodipodi:guide
       orientation="0,1"
       position="69.17888,0.40455486"
       id="guide3049" />
  </sodipodi:namedview>
  <g
     transform="matrix(0.08225276,0,0,0.08450395,0.67450381,0.44738777)"
     id="layer1"
     style="fill:#000000">
    <path
       inkscape:connector-curvature="0"
       d="m 8.1445354,229.6104 0,-216.14975 218.2898546,0 218.28986,0 0,216.14975 0,216.14977 -218.28986,0 -218.2898546,0 0,-216.14977 z m 400.9114446,0.71337 0,-184.048304 -183.33495,0 -183.334948,0 0,184.048304 0,184.04831 183.334948,0 183.33495,0 0,-184.04831 z m -323.867964,-2.1401 0,-137.679554 137.679544,0 137.67956,0 0,137.679554 0,137.67955 -137.67956,0 -137.679544,0 0,-137.67955 z m 92.121954,91.8902 c 17.21364,-5.31674 31.39867,-23.02497 33.05231,-41.26163 l 0.77439,-8.54 -25.87932,0 -25.87932,0 0,-26.42171 0,-26.4217 -3.92351,0.8426 c -13.86807,2.97828 -17.89204,4.53049 -25.31817,9.76623 -10.95494,7.72369 -15.78618,13.989 -20.00344,25.94106 -4.29477,12.17176 -4.44825,21.62794 -0.54405,33.52071 3.98278,12.13218 10.43355,20.91094 20.54118,27.95419 10.9661,7.64145 31.03537,9.6068 47.17993,4.62025 z m 79.08578,-52.6551 0,-7.13365 -6.42029,0 -6.42029,0 0,7.13365 0,7.13366 6.42029,0 6.42029,0 0,-7.13366 z m 81.32367,0 0,-7.13365 -36.38164,0 -36.38165,0 0,7.13365 0,7.13366 36.38165,0 36.38164,0 0,-7.13366 z m -81.32367,-32.10145 0,-7.84702 -6.42029,0 -6.42029,0 0,7.84702 0,7.84703 6.42029,0 6.42029,0 0,-7.84703 z m 81.32367,0 0,-7.84702 -36.38164,0 -36.38165,0 0,7.84702 0,7.84703 36.38165,0 36.38164,0 0,-7.84703 z m -81.32367,-31.38808 0,-7.84702 -6.42029,0 -6.42029,0 0,7.84702 0,7.84702 6.42029,0 6.42029,0 0,-7.84702 z m 81.32367,0 0,-7.84702 -36.38164,0 -36.38165,0 0,7.84702 0,7.84702 36.38165,0 36.38164,0 0,-7.84702 z m 0,-60.63607 0,-21.40096 -115.56522,0 -115.56522,0 0,21.40096 0,21.40096 115.56522,0 115.56522,0 0,-21.40096 z"
       id="path2559"
       style="fill:#000000;fill-opacity:1" />
  </g>
</svg>
