<?xml version="1.0" encoding="UTF-8" standalone="no"?>
<!-- Created with Inkscape (http://www.inkscape.org/) -->

<svg
   xmlns:dc="http://purl.org/dc/elements/1.1/"
   xmlns:cc="http://creativecommons.org/ns#"
   xmlns:rdf="http://www.w3.org/1999/02/22-rdf-syntax-ns#"
   xmlns:svg="http://www.w3.org/2000/svg"
   xmlns="http://www.w3.org/2000/svg"
   xmlns:sodipodi="http://sodipodi.sourceforge.net/DTD/sodipodi-0.dtd"
   xmlns:inkscape="http://www.inkscape.org/namespaces/inkscape"
   version="1.1"
   width="48"
   height="48"
   viewBox="0 0 38.4 38.4"
   id="svg2"
   inkscape:version="0.48.4 r9939"
   sodipodi:docname="usecase.svg">
  <sodipodi:namedview
     pagecolor="#ffffff"
     bordercolor="#666666"
     borderopacity="1"
     objecttolerance="10"
     gridtolerance="10"
     guidetolerance="10"
     inkscape:pageopacity="0"
     inkscape:pageshadow="2"
     inkscape:window-width="1301"
     inkscape:window-height="744"
     id="namedview19"
     showgrid="false"
     inkscape:zoom="39.333334"
     inkscape:cx="16.638917"
     inkscape:cy="25.594667"
     inkscape:window-x="65"
     inkscape:window-y="24"
     inkscape:window-maximized="1"
     inkscape:current-layer="svg2" />
  <metadata
     id="metadata10">
    <rdf:RDF>
      <cc:Work
         rdf:about="">
        <dc:format>image/svg+xml</dc:format>
        <dc:type
           rdf:resource="http://purl.org/dc/dcmitype/StillImage" />
        <dc:title />
      </cc:Work>
    </rdf:RDF>
  </metadata>
  <defs
     id="defs8" />
  <text
     x="31.779661"
     y="6.3050847"
     transform="scale(0.8,0.8)"
     id="text3094"
     xml:space="preserve"
     style="font-size:40px;font-style:normal;font-weight:normal;line-height:125%;letter-spacing:0px;word-spacing:0px;fill:#000000;fill-opacity:1;stroke:none;font-family:Sans"><tspan
       x="31.779661"
       y="6.3050847"
       id="tspan3096" /></text>
  <g
     transform="matrix(0.99382151,0,0,0.90759237,-2.3492045,2.4148708)"
     id="g3857">
    <path
       transform="matrix(0.26175847,0,0,0.24132987,0.94237312,5.609762)"
       style="fill:#000000;stroke:#000000;stroke-width:2;stroke-opacity:1"
       d="M 42,14 C 42,19.522847 37.522847,24 32,24 26.477153,24 22,19.522847 22,14 22,8.4771525 26.477153,4 32,4 37.522847,4 42,8.4771525 42,14 z"
       id="head" />
    <path
       style="font-size:medium;font-style:normal;font-variant:normal;font-weight:normal;font-stretch:normal;text-indent:0;text-align:start;text-decoration:none;line-height:normal;letter-spacing:normal;word-spacing:normal;text-transform:none;direction:ltr;block-progression:tb;writing-mode:lr-tb;text-anchor:start;baseline-shift:baseline;color:#000000;fill:#000000;fill-opacity:1;fill-rule:nonzero;stroke:none;stroke-width:0.50267339;marker:none;visibility:visible;display:inline;overflow:visible;enable-background:accumulate;font-family:Sans;-inkscape-font-specification:Sans"
       d="m 9.21875,11.15625 c -0.011307,0.0095 -0.021777,0.01994 -0.03125,0.03125 -0.060634,0.03208 -0.1070084,0.09005 -0.125,0.15625 -0.0026,0.02073 -0.0026,0.04177 0,0.0625 l 0,2.15625 -4.96875,0 c 0.055314,-0.274484 -0.1368564,0.01756 -0.1875,0.0625 -0.037796,0.04293 -0.06026,0.09909 -0.0625,0.15625 -0.01047,0.04079 -0.01047,0.08421 0,0.125 0.00744,0.02215 0.017996,0.04325 0.03125,0.0625 0.038082,0.04912 0.094986,0.08326 0.15625,0.09375 0.020725,0.0026 0.041775,0.0026 0.0625,0 l 4.96875,0 0,4.53125 -5.1875,7.125 c -0.016463,0.02878 -0.027153,0.06085 -0.03125,0.09375 -0.01047,0.04079 -0.01047,0.08421 0,0.125 0.0041,0.0329 0.014787,0.06497 0.03125,0.09375 0.00947,0.01131 0.019943,0.02178 0.03125,0.03125 0.050644,0.04494 0.1200211,0.06807 0.1875,0.0625 0.072039,-0.0024 0.1423445,-0.03757 0.1875,-0.09375 l 5.03125,-6.96875 5.03125,6.96875 c 0.0095,0.01131 0.01994,0.02178 0.03125,0.03125 0.04293,0.0378 0.09909,0.06026 0.15625,0.0625 0.03088,0.0059 0.06287,0.0059 0.09375,0 0.0662,-0.01799 0.124166,-0.06437 0.15625,-0.125 0.01646,-0.02878 0.02715,-0.06085 0.03125,-0.09375 6.17e-4,-0.04343 -0.01027,-0.08697 -0.03125,-0.125 -0.0074,-0.02215 -0.018,-0.04325 -0.03125,-0.0625 L 9.5625,18.5625 c 6.479e-4,-0.0104 6.479e-4,-0.02085 0,-0.03125 l 0,-4.46875 5,0 c 0.0104,6.48e-4 0.02085,6.48e-4 0.03125,0 0.0329,-0.0041 0.06497,-0.01479 0.09375,-0.03125 0.06063,-0.03208 0.107008,-0.09005 0.125,-0.15625 0.01496,-0.07726 -0.009,-0.161058 -0.0625,-0.21875 -0.0095,-0.01131 -0.01994,-0.02178 -0.03125,-0.03125 -0.01925,-0.01325 -0.04035,-0.02381 -0.0625,-0.03125 -0.02878,-0.01646 -0.06085,-0.02715 -0.09375,-0.03125 l -5,0 0,-2.15625 c 0.00586,-0.03088 0.00586,-0.06287 0,-0.09375 -0.03065,-0.07923 -0.1040451,-0.14039 -0.1875,-0.15625 -0.040786,-0.01047 -0.084214,-0.01047 -0.125,0 -0.010403,-6.48e-4 -0.020847,-6.48e-4 -0.03125,0 z"
       id="path3839"
       inkscape:connector-curvature="0"
       sodipodi:nodetypes="ccccccccccccccccccccccccccccccccccccccccccccccc" />
  </g>
  <rect
     width="16.143387"
     height="5.7653375"
     x="19.059029"
     y="2.9262927"
     id="textrect"
     style="fill:none;stroke:none" />
  <text
     x="30.021544"
     y="5.2496076"
     transform="scale(0.90370848,1.1065515)"
     id="text"
     style="font-size:2.04685807px;stroke:#000000;stroke-width:0.18607801" />
  <path
     d="M 120,25 C 120,38.807119 93.137085,50 60,50 26.862915,50 0,38.807119 0,25 0,11.192881 26.862915,0 60,0 c 33.137085,0 60,11.192881 60,25 z m 2.08333,-93.125777 c 0,13.807119 -26.862912,25 -59.999997,25 -33.137085,0 -60.0000001,-11.192881 -60.0000001,-25 0,-13.807119 26.8629151,-25 60.0000001,-25 33.137085,0 59.999997,11.192881 59.999997,25 z"
     transform="matrix(0.16271187,0,0,0.21339868,18.440678,23.166728)"
     id="celem-4"
     style="fill:#000000;fill-opacity:1;stroke:#000000;stroke-width:1" />
  <g
     transform="matrix(0.9482029,-0.03642093,0.03336001,0.86851331,0.07624889,2.9402152)"
     id="g4064">
    <g
       id="g2996" />
  </g>
  <g
     transform="matrix(0.9116049,0,0,0.92334014,1.0245031,1.4159312)"
     id="g4068">
    <path
       id="path4044-6"
       style="fill:none;stroke:#000000;stroke-width:0.44812036px;stroke-linecap:butt;stroke-linejoin:miter;stroke-opacity:1"
       d="m 18.528691,23.887773 -0.241808,0.255633 0.563429,0.261718 z m -6.938666,-5.417466 7.347383,6.002863 0,0 m 0.552116,-11.512486 0.229666,0.256637 0.349031,-0.494458 z m -7.945753,5.698506 8.545041,-5.870564 0,0" />
  </g>
</svg>
