<?xml version="1.0" encoding="UTF-8" standalone="no"?>
<svg
   xmlns:svg="http://www.w3.org/2000/svg"
   xmlns="http://www.w3.org/2000/svg"
   xmlns:oryx="http://www.b3mn.org/oryx"
   version="1.0">
  <g>
    <rect x="0" y="0" width="320" height="180"
      oryx:anchor="top bottom left right"
      oryx:resize="vertical horizontal"
      style="fill:blue;stroke:blue;stroke-width:0;opacity:0.01;" />

    <path
       d="m 67.911461,13.936295 43.973999,29.997818 25.88792,-11.931018 -37.23605,-31.6565755 -24.114772,0 z"
       id="path6"
       oryx:resize="vertical horizontal"
       style="fill:#e4ddd7;fill-opacity:1;stroke:#000000;stroke-width:1px;stroke-linecap:butt;stroke-linejoin:miter;stroke-opacity:1;display:inline" />
    <path
       d="M 1.0638863,52.967482 C 21.38162,37.056006 39.902483,20.37687 51.775839,0.8577891 l 13.121275,0 C 54.135229,22.081194 32.630167,44.243403 1.0638863,67.284819 z"
       id="path8"
       oryx:resize="vertical horizontal"
       style="fill:#9bd4d1;fill-opacity:1;stroke:#000000;stroke-width:1px;stroke-linecap:butt;stroke-linejoin:miter;stroke-opacity:1;display:inline" />
    <path
       d="m 0.88657306,0.51690698 0,37.11088202 C 18.285266,26.272197 29.918582,13.685064 38.83188,0.51690698 z"
       id="path10"
       oryx:resize="vertical horizontal"
       style="fill:#e4ddd7;fill-opacity:1;stroke:#000000;stroke-width:1px;stroke-linecap:butt;stroke-linejoin:miter;stroke-opacity:1;display:inline" />
    <path
       d="m 0,79.750031 0,5.454114 22.69626,0 L 100.00539,49.070353 62.41471,20.094941 C 47.283348,39.659167 30.932505,59.292348 0,79.750031 z"
       id="path12"
       oryx:resize="vertical horizontal"
       style="fill:#e4ddd7;fill-opacity:1;stroke:#000000;stroke-width:1px;stroke-linecap:butt;stroke-linejoin:miter;stroke-opacity:1" />
    <path
       d="M 50.357324,85.204145 147.52568,40.54806 188.66265,74.636655 c -1.82232,2.76983 -3.89678,5.176094 -3.90092,10.56749 z"
       id="path14"
       oryx:resize="vertical horizontal"
       style="fill:#e4ddd7;fill-opacity:1;stroke:#000000;stroke-width:1px;stroke-linecap:butt;stroke-linejoin:miter;stroke-opacity:1" />
    <path
       d="m 115.60907,0.02845343 30.4981,25.17986357 65.60637,0 0,-25.17986357 z"
       id="path16"
       oryx:resize="vertical horizontal"
       style="fill:#e4ddd7;fill-opacity:1;stroke:#000000;stroke-width:1px;stroke-linecap:butt;stroke-linejoin:miter;stroke-opacity:1" />
    <path
       d="m 161.35621,38.502864 33.33513,27.611691 c 3.84931,-3.827319 9.39537,-7.192866 17.0222,-9.203931 l 0,-18.40776 z"
       id="path18"
       oryx:resize="vertical horizontal"
       style="fill:#e4ddd7;fill-opacity:1;stroke:#000000;stroke-width:1px;stroke-linecap:butt;stroke-linejoin:miter;stroke-opacity:1" />
    <path
       d="m 223.7413,0 14.68802,0 11.61376,6.6217821 -20.83646,50.9991129 -5.46532,-3.33333 z"
       id="path20"
       oryx:resize="vertical horizontal"
       style="fill:#e4ddd7;fill-opacity:1;stroke:#000000;stroke-width:0.9704892px;stroke-linecap:butt;stroke-linejoin:miter;stroke-opacity:1" />
    <path
       d="m 241.47674,63.879417 21.02872,-49.944913 38.95488,69.589869 -49.98634,0 c -0.76636,-8.200635 -3.7206,-14.992476 -9.99726,-19.644956 z"
       id="path22"
       oryx:resize="vertical horizontal"
       style="fill:#e4ddd7;fill-opacity:1;stroke:#000000;stroke-width:0.97442937px;stroke-linecap:butt;stroke-linejoin:miter;stroke-opacity:1" />
    <path
       d="m 268.45419,0.02845343 24.4694,41.88313457 24.11478,-14.658075 0,-27.22505957 z"
       id="path24"
       oryx:resize="vertical horizontal"
       style="fill:#e4ddd7;fill-opacity:1;stroke:#000000;stroke-width:1px;stroke-linecap:butt;stroke-linejoin:miter;stroke-opacity:1" />
    <path
       d="m 298.59766,52.820008 18.44071,-10.90842 0,43.292557 z"
       id="path26"
       oryx:resize="vertical horizontal"
       style="fill:#e4ddd7;fill-opacity:1;stroke:#000000;stroke-width:1px;stroke-linecap:butt;stroke-linejoin:miter;stroke-opacity:1" />
    <path
       d="m 245.75792,108.04343 c 3.05449,-3.52251 4.02275,-7.04502 4.25555,-10.56753 l 67.0249,0 0,69.88159 z"
       id="path28"
       oryx:resize="vertical horizontal"
       style="fill:#e4ddd7;fill-opacity:1;stroke:#000000;stroke-width:1px;stroke-linecap:butt;stroke-linejoin:miter;stroke-opacity:1" />
    <path
       d="m 236.89219,118.95176 3.19166,-2.3862 36.88143,32.04323 -29.43422,-1.70443 z"
       id="path30"
       oryx:resize="vertical horizontal"
       style="fill:#e4ddd7;fill-opacity:1;stroke:#000000;stroke-width:1px;stroke-linecap:butt;stroke-linejoin:miter;stroke-opacity:1" />
    <path
       d="m 252.49588,160.19889 38.29993,-0.34088 20.92313,16.70339 -52.48512,0 z"
       id="path32"
       oryx:resize="vertical horizontal"
       style="fill:#e4ddd7;fill-opacity:1;stroke:#000000;stroke-width:1px;stroke-linecap:butt;stroke-linejoin:miter;stroke-opacity:1" />
    <path
       d="m 221.99778,125.42858 4.96482,-1.02265 21.63235,52.15547 -26.95181,0 z"
       id="path34"
       oryx:resize="vertical horizontal"
       style="fill:#e4ddd7;fill-opacity:1;stroke:#000000;stroke-width:1px;stroke-linecap:butt;stroke-linejoin:miter;stroke-opacity:1" />
    <path
       d="m 111.70815,176.5614 99.65076,-18.40782 0,18.40782 z"
       id="path36"
       oryx:resize="vertical horizontal"
       style="fill:#e4ddd7;fill-opacity:1;stroke:#000000;stroke-width:1px;stroke-linecap:butt;stroke-linejoin:miter;stroke-opacity:1" />
    <path
       d="m 101.06928,149.97233 110.28963,-3.74974 -109.58037,21.1349 z"
       id="path38"
       oryx:resize="vertical horizontal"
       style="fill:#d4cbba;fill-opacity:1;stroke:#000000;stroke-width:1px;stroke-linecap:butt;stroke-linejoin:miter;stroke-opacity:1" />
    <path
       d="M 60.641566,176.5614 92.55818,170.76634 90.785034,148.60879 34.399016,148.2679 z"
       id="path40"
       oryx:resize="vertical horizontal"
       style="fill:#e4ddd7;fill-opacity:1;stroke:#000000;stroke-width:1px;stroke-linecap:butt;stroke-linejoin:miter;stroke-opacity:1" />
    <path
       d="M 0.78827589,147.00035 18.794389,147.405 45.194973,176.98181 0,176.5614 z"
       id="path42"
       oryx:resize="vertical horizontal"
       style="fill:#d4cbba;fill-opacity:1;stroke:#000000;stroke-width:1px;stroke-linecap:butt;stroke-linejoin:miter;stroke-opacity:1" />
    <path
       d="m 208.57109,125.10537 c -20.10453,-5.66851 -24.38692,-15.42188 -24.26147,-26.313241 l -11.29987,0 0,34.865011 35.56134,0 z"
       id="path44"
       oryx:resize="vertical horizontal"
       style="fill:#e4ddd7;fill-opacity:1;stroke:#000000;stroke-width:0.9509275px;stroke-linecap:butt;stroke-linejoin:miter;stroke-opacity:1" />
    <path
       d="m 160.64695,97.4759 -0.2756,36.15073 -26.99132,0 -0.0395,-36.15073 z"
       id="path46"
       oryx:resize="vertical horizontal"
       style="fill:#d4cbba;fill-opacity:1;stroke:#000000;stroke-width:1px;stroke-linecap:butt;stroke-linejoin:miter;stroke-opacity:1" />
    <path
       d="m 99.965882,133.62663 21.034468,0 -0.42648,-36.15073 -24.469401,0 z"
       id="path48"
       oryx:resize="vertical horizontal"
       style="fill:#e4ddd7;fill-opacity:1;stroke:#000000;stroke-width:1px;stroke-linecap:butt;stroke-linejoin:miter;stroke-opacity:1" />
    <path
       d="m 0,133.62663 7.9579722,0 L 0,125.83323 z"
       id="path50"
       oryx:resize="vertical horizontal"
       style="fill:#e4ddd7;fill-opacity:1;stroke:#000000;stroke-width:1px;stroke-linecap:butt;stroke-linejoin:miter;stroke-opacity:1" />
    <path
       d="M 1.6821451e-7,113.15123 -0.55739522,96.429373 l 81.93709822,0 5.573952,37.197257 -65.677003,0 z"
       id="path3039"
       oryx:resize="vertical horizontal"
       style="fill:#9bd4d1;fill-opacity:1;stroke:#000000;stroke-width:1px;stroke-linecap:butt;stroke-linejoin:miter;stroke-opacity:1" />
  </g>
</svg>
