<?xml version="1.0" encoding="UTF-8" standalone="no"?>
<svg
   xmlns:dc="http://purl.org/dc/elements/1.1/"
   xmlns:cc="http://creativecommons.org/ns#"
   xmlns:rdf="http://www.w3.org/1999/02/22-rdf-syntax-ns#"
   xmlns:svg="http://www.w3.org/2000/svg"
   xmlns="http://www.w3.org/2000/svg"
   xmlns:xlink="http://www.w3.org/1999/xlink"
   xmlns:sodipodi="http://sodipodi.sourceforge.net/DTD/sodipodi-0.dtd"
   xmlns:inkscape="http://www.inkscape.org/namespaces/inkscape"
   width="640"
   height="480"
   id="svg2"
   version="1.1"
   inkscape:version="0.48.3.1 r9886"
   sodipodi:docname="Layer 1.svg">
  <sodipodi:namedview
     pagecolor="#ffffff"
     bordercolor="#666666"
     borderopacity="1"
     objecttolerance="10"
     gridtolerance="10"
     guidetolerance="10"
     inkscape:pageopacity="0"
     inkscape:pageshadow="2"
     inkscape:window-width="1024"
     inkscape:window-height="692"
     id="namedview33"
     showgrid="false"
     inkscape:zoom="0.49166667"
     inkscape:cx="320"
     inkscape:cy="240"
     inkscape:window-x="0"
     inkscape:window-y="24"
     inkscape:window-maximized="1"
     inkscape:current-layer="svg2" />
  <metadata
     id="metadata4">globeA logo for the school clubhashgeographynationsextraordinaryCopyLeftJason KnightCopyLeftimage/svg+xmlen<rdf:RDF>
  <cc:Work
     rdf:about="">
    <dc:format>image/svg+xml</dc:format>
    <dc:type
       rdf:resource="http://purl.org/dc/dcmitype/StillImage" />
    <dc:title></dc:title>
  </cc:Work>
</rdf:RDF>
</metadata>
  <defs
     id="defs6">
    <linearGradient
       id="linearGradient1530">
      <stop
         stop-color="#0000ed"
         offset="0"
         id="stop1531" />
      <stop
         stop-color="#ffffff"
         offset="1"
         id="stop1532" />
    </linearGradient>
    <linearGradient
       y2="-0.17931"
       y1="0.996552"
       xlink:href="#linearGradient1530"
       x2="-0.123239"
       x1="0.989437"
       id="linearGradient4041" />
  </defs>
  <g
     id="g12">
    <title
       id="title14">Layer 1</title>
    <g
       id="g1006">
      <path
         fill="url(#linearGradient4041)"
         fill-rule="evenodd"
         stroke="#000000"
         stroke-width="3.125"
         stroke-miterlimit="4"
         id="path908"
         d="m451.980652,238.119507a132.30278,135.774277 0 1 0-264.60556,0a132.30278,135.774277 0 1 0264.60556,0z" />
      <path
         fill="none"
         fill-opacity="0.75"
         fill-rule="evenodd"
         stroke="#000000"
         stroke-width="3.125"
         stroke-miterlimit="4"
         id="path4042"
         d="m313.892059,103.116638c0,0 -37.559387,15.705719 -38.330811,136.051086c-0.771454,120.345398 42.188019,134.726074 42.188019,134.726074" />
      <path
         fill="none"
         fill-opacity="0.75"
         fill-rule="evenodd"
         stroke="#000000"
         stroke-width="3.125"
         stroke-miterlimit="4"
         id="path7092"
         d="m313.892059,103.116638c0,0 115.716705,15.428894 114.945251,135.774292c-0.771423,120.345398 -111.088043,135.002869 -111.088043,135.002869" />
      <path
         fill="none"
         fill-opacity="0.75"
         fill-rule="evenodd"
         stroke="#000000"
         stroke-width="3.125"
         stroke-miterlimit="4"
         id="path7093"
         d="m313.892059,103.116638c0,0 41.404816,16.212158 40.633362,136.557556c-0.771454,120.345398 -36.776154,134.219604 -36.776154,134.219604" />
      <path
         fill="none"
         fill-opacity="0.75"
         fill-rule="evenodd"
         stroke="#000000"
         stroke-width="3.125"
         stroke-miterlimit="4"
         id="path7094"
         d="m313.892059,103.116638c0,0 -105.157944,13.897827 -105.929398,134.243225c-0.771439,120.345398 109.786606,136.533936 109.786606,136.533936" />
      <path
         fill="none"
         fill-opacity="0.75"
         fill-rule="evenodd"
         stroke="#000000"
         stroke-width="3.125"
         stroke-miterlimit="4"
         id="path7095"
         d="m313.892059,103.116638c0,0 77.14447,13.886017 76.373016,134.231384c-0.771454,120.345398 -72.515808,136.545776 -72.515808,136.545776" />
      <path
         fill="none"
         fill-opacity="0.75"
         fill-rule="evenodd"
         stroke="#000000"
         stroke-width="3.125"
         stroke-miterlimit="4"
         id="path7096"
         d="m313.892059,103.116638c0,0 -77.789307,14.427826 -78.56076,134.773224c-0.771454,120.345367 82.417969,136.003937 82.417969,136.003937" />
      <path
         fill="none"
         fill-opacity="0.75"
         fill-rule="evenodd"
         stroke="#000000"
         stroke-width="3.125"
         stroke-miterlimit="4"
         id="path7097"
         d="m313.892059,103.116638c0,0 2.314331,11.571686 1.542877,131.917053c-0.771423,120.345398 2.314331,138.860107 2.314331,138.860107" />
      <path
         fill="none"
         fill-opacity="0.75"
         fill-rule="evenodd"
         stroke="#000000"
         stroke-width="3.125"
         stroke-miterlimit="4"
         id="path7107"
         d="m266.833923,113.91687c0,0 3.085785,17.743225 47.829559,17.743225c44.743805,0 57.858368,-16.200317 57.858368,-16.200317" />
      <path
         fill="none"
         fill-opacity="0.75"
         fill-rule="evenodd"
         stroke="#000000"
         stroke-width="3.125"
         stroke-miterlimit="4"
         id="path7108"
         d="m223.417145,145.546112c0,0 2.19809,27.00058 90.562103,27.00058c88.363953,0 105.045166,-25.457703 103.502289,-24.686249" />
      <path
         fill="none"
         fill-opacity="0.75"
         fill-rule="evenodd"
         stroke="#000000"
         stroke-width="3.125"
         stroke-miterlimit="4"
         id="path7109"
         d="m201.216721,177.175354c0,0 10.205933,34.714996 113.448196,34.714996c103.242249,0 124.245575,-31.629242 124.245575,-31.629242" />
      <path
         fill="none"
         fill-opacity="0.75"
         fill-rule="evenodd"
         stroke="#000000"
         stroke-width="3.125"
         stroke-miterlimit="4"
         id="path7110"
         d="m188.958038,219.604797c0,0 16.890625,28.543457 127.573151,28.543457c110.682434,0 133.866547,-27.000549 133.866547,-27.000549" />
      <path
         fill="none"
         fill-opacity="0.75"
         fill-rule="evenodd"
         stroke="#000000"
         stroke-width="3.125"
         stroke-miterlimit="4"
         id="path7111"
         d="m188.959183,251.23407c0,0 16.096573,32.400635 126.451523,32.400635c110.354919,0 134.214447,-30.857788 134.214447,-30.857788" />
      <path
         fill="none"
         fill-opacity="0.75"
         fill-rule="evenodd"
         stroke="#000000"
         stroke-width="3.125"
         stroke-miterlimit="4"
         id="path7112"
         d="m196.595734,285.177612c0,0 15.628113,30.086365 119.190491,30.086365c103.562317,0 125.430939,-28.543457 125.430939,-28.543457" />
      <path
         fill="none"
         fill-opacity="0.75"
         fill-rule="evenodd"
         stroke="#000000"
         stroke-width="3.125"
         stroke-miterlimit="4"
         id="path7113"
         d="m213.402756,318.349731c0,0 13.126328,26.229126 102.784531,26.229126c89.658142,0 108.994263,-24.686218 108.994263,-24.686218" />
      <path
         fill="none"
         fill-opacity="0.75"
         fill-rule="evenodd"
         stroke="#000000"
         stroke-width="3.125"
         stroke-miterlimit="4"
         id="path7114"
         d="m237.838348,343.03595c0,0 10.927979,24.686279 79.896179,24.686279c68.968201,0 83.011475,-23.143372 83.011475,-23.143372" />
    </g>
  </g>
</svg>
